<svg width="477" height="503" viewBox="0 0 477 503" fill="none" xmlns="http://www.w3.org/2000/svg">
<path d="M448.119 382.036V186.574C448.119 161.762 429.255 141.469 406.195 141.469H210.551C187.491 141.469 168.627 161.77 168.627 186.574H115.523C97.5763 186.574 83.3856 186.574 73.1897 199.322C63.5975 211.315 61.7193 231.294 61.7193 261.756C61.7193 278.3 54.9817 285.932 45.6504 296.503C35.067 308.48 21.8898 323.413 21.8898 351.974V384.151C19.7643 385.48 18.0031 387.369 16.7788 389.633C15.5545 391.897 14.9092 394.457 14.9062 397.063V412.098C14.9062 420.367 21.2041 427.133 28.8809 427.133H43.4145C43.0616 429.624 42.8748 432.137 42.8555 434.655C42.8555 463.719 64.7602 487.281 91.7703 487.281C118.766 487.281 140.685 463.719 140.685 434.663C140.685 432.101 140.462 429.601 140.134 427.141H196.584V434.663C196.584 442.923 202.882 449.69 210.558 449.69H266.457C274.141 449.69 280.431 442.923 280.431 434.663V427.141H329.905C329.552 429.632 329.366 432.145 329.346 434.663C329.346 463.719 351.251 487.281 378.261 487.281C405.256 487.281 427.176 463.719 427.176 434.663C427.176 432.101 426.952 429.601 426.624 427.141H448.142C455.826 427.141 462.116 420.374 462.116 412.106V397.071C462.094 388.811 455.803 382.036 448.119 382.036ZM406.195 359.48H210.551C198.991 359.48 189.585 349.357 189.585 336.924V306.854H203.56V336.924C203.546 338.897 204.273 340.796 205.583 342.205C206.893 343.615 208.679 344.42 210.551 344.445H406.195C408.067 344.42 409.853 343.615 411.163 342.205C412.473 340.796 413.2 338.897 413.186 336.924V306.854H427.161V336.924C427.161 349.357 417.755 359.48 406.195 359.48ZM247.25 265.128V271.699H231.762V284.714H249.083V291.363H224.257V247.044H248.167V253.693H231.762V265.136L247.25 265.128ZM217.542 201.609C215.669 201.588 213.881 200.784 212.57 199.374C211.259 197.963 210.533 196.062 210.551 194.087C210.551 189.93 213.681 186.566 217.542 186.566C221.41 186.566 224.533 189.93 224.533 194.087C224.549 196.061 223.822 197.962 222.511 199.371C221.201 200.781 219.414 201.586 217.542 201.609ZM224.525 329.41C224.534 330.387 224.36 331.357 224.014 332.264C223.667 333.17 223.155 333.996 222.506 334.694C221.856 335.391 221.083 335.947 220.23 336.33C219.377 336.713 218.461 336.914 217.534 336.924C213.674 336.924 210.543 333.56 210.543 329.41C210.543 325.26 213.674 321.896 217.534 321.896C221.403 321.896 224.525 325.26 224.525 329.41ZM280.059 284.58V291.363H255.665V247.044H263.162V284.58H280.059ZM285.708 291.363V247.044H293.228V291.363H285.708ZM297.909 247.044H306.092L311.697 267.172C313.285 272.744 314.634 277.947 315.722 283.338H315.849C316.937 278.08 318.412 272.697 320.067 267.297L326.044 247.044H334.027L319.821 291.363H311.205L297.909 247.044ZM361.462 265.128V271.699H345.959V284.714H363.28V291.363H338.454V247.044H362.378V253.693H345.959V265.136L361.462 265.128ZM392.221 194.095C392.221 189.938 395.351 186.574 399.212 186.574C403.08 186.574 406.203 189.938 406.203 194.095C406.221 196.07 405.494 197.971 404.184 199.382C402.873 200.792 401.084 201.596 399.212 201.617C397.34 201.592 395.554 200.787 394.244 199.377C392.934 197.968 392.207 196.069 392.221 194.095ZM406.195 329.41C406.204 330.387 406.03 331.357 405.684 332.264C405.337 333.17 404.825 333.996 404.176 334.694C403.526 335.391 402.753 335.947 401.9 336.33C401.047 336.713 400.131 336.914 399.204 336.924C395.344 336.924 392.213 333.56 392.213 329.41C392.213 325.26 395.344 321.896 399.204 321.896C403.072 321.896 406.195 325.26 406.195 329.41ZM393.905 250.274C396.156 252.31 397.445 255.39 397.445 259.147C397.445 264.869 393.86 268.759 390.007 270.252V270.457C392.944 271.636 394.703 274.732 395.739 278.992C397.021 284.517 398.109 289.642 398.981 291.363H391.229C390.626 290.042 389.642 286.435 388.487 280.91C387.331 275.125 385.379 273.278 381.101 273.145H377.322V291.363H369.876V247.641C373.63 247.006 377.426 246.696 381.227 246.714C387.13 246.714 391.155 247.775 393.905 250.274ZM420.476 272.689V291.363H412.978V272.878L399.994 247.036H408.521L413.462 258.408C414.863 261.694 415.922 264.201 417.017 267.227H417.137C418.165 264.405 419.32 261.639 420.729 258.408L425.663 247.036H434.152L420.476 272.689ZM189.593 186.574C189.593 174.132 198.998 164.017 210.558 164.017H406.195C417.755 164.017 427.161 174.132 427.161 186.574V231.679H413.186V186.574C413.202 184.6 412.475 182.699 411.165 181.289C409.854 179.88 408.067 179.075 406.195 179.052H210.551C208.679 179.077 206.893 179.882 205.583 181.292C204.273 182.701 203.546 184.6 203.56 186.574V231.679H189.585L189.593 186.574ZM182.602 247.641C186.556 246.99 190.554 246.68 194.556 246.714C202.233 246.714 207.547 248.427 211.333 251.838C215.298 255.328 217.736 260.585 217.736 268.154C217.736 276.037 215.231 281.955 211.333 285.775C207.249 289.783 200.72 291.826 192.73 291.826C188.333 291.826 185.046 291.559 182.602 291.229V247.641ZM35.8719 351.966C35.8719 306.854 75.7014 306.854 75.7014 261.749C75.7014 201.609 83.9967 201.609 115.531 201.609H168.634V382.036H35.8719V351.966ZM47.6329 412.106H28.8809V397.071H57.5754C53.4762 401.378 50.1223 406.479 47.6329 412.106ZM98.5676 463.727C98.098 460.064 95.3031 457.211 91.7703 457.211C88.2525 457.211 85.4426 460.064 84.9731 463.727C79.9185 462.376 75.3295 459.545 71.7363 455.561C73.0912 454.46 74.027 452.883 74.3743 451.117C74.7216 449.351 74.4574 447.512 73.6294 445.933C72.7999 444.396 71.4651 443.233 69.8775 442.664C68.2898 442.095 66.5595 442.159 65.0136 442.844C64.3205 440.227 63.8286 437.508 63.8286 434.655C63.8286 431.802 64.313 429.083 65.0062 426.465C66.5533 427.156 68.2873 427.221 69.8775 426.65C71.4678 426.079 72.8033 424.911 73.6294 423.369C74.4553 421.791 74.7184 419.954 74.3712 418.189C74.024 416.425 73.0893 414.85 71.7363 413.749C75.3313 409.765 79.9194 406.932 84.9731 405.575C85.4426 409.246 88.2375 412.091 91.7703 412.091C95.2957 412.091 98.098 409.246 98.5676 405.575C103.621 406.929 108.209 409.759 111.804 413.741C110.451 414.843 109.516 416.42 109.17 418.187C108.825 419.953 109.09 421.791 109.919 423.369C110.746 424.908 112.081 426.073 113.669 426.643C115.258 427.212 116.989 427.146 118.535 426.458C119.228 429.083 119.712 431.794 119.712 434.655C119.712 437.508 119.228 440.211 118.535 442.836C116.988 442.147 115.256 442.081 113.667 442.652C112.078 443.223 110.743 444.391 109.919 445.933C109.09 447.511 108.825 449.349 109.17 451.115C109.516 452.881 110.451 454.459 111.804 455.561C108.205 459.537 103.618 462.366 98.5676 463.727ZM264.705 427.141H212.302C207.495 427.141 203.567 423.762 203.567 419.62C203.567 415.494 207.495 412.106 212.302 412.106H264.705C269.512 412.106 273.44 415.494 273.44 419.62C273.44 423.762 269.505 427.141 264.705 427.141ZM334.109 412.106H278.471C277.274 409.847 275.532 407.961 273.42 406.642C271.309 405.322 268.904 404.615 266.449 404.593H210.551C205.423 404.593 200.966 407.642 198.536 412.106H135.908C133.447 406.519 130.08 401.428 125.958 397.063H344.051C339.959 401.378 336.598 406.479 334.109 412.106ZM385.043 463.727C384.574 460.064 381.779 457.211 378.246 457.211C374.728 457.211 371.926 460.064 371.449 463.727C366.399 462.371 361.813 459.541 358.22 455.561C359.573 454.459 360.508 452.881 360.853 451.115C361.199 449.349 360.934 447.511 360.105 445.933C359.276 444.396 357.941 443.233 356.353 442.664C354.766 442.095 353.035 442.159 351.489 442.844C350.789 440.235 350.297 437.516 350.297 434.663C350.297 431.81 350.789 429.09 351.482 426.473C353.028 427.163 354.761 427.229 356.35 426.658C357.939 426.086 359.273 424.919 360.098 423.377C360.928 421.801 361.194 419.963 360.848 418.198C360.502 416.433 359.566 414.857 358.212 413.757C361.808 409.778 366.392 406.945 371.441 405.583C371.918 409.253 374.713 412.098 378.239 412.098C381.764 412.098 384.566 409.253 385.036 405.583C390.089 406.937 394.678 409.767 398.273 413.749C396.922 414.853 395.989 416.43 395.643 418.196C395.298 419.961 395.561 421.798 396.387 423.377C397.215 424.915 398.55 426.079 400.138 426.648C401.726 427.217 403.457 427.152 405.003 426.465C405.696 429.09 406.18 431.802 406.18 434.663C406.18 437.516 405.703 440.219 405.003 442.844C403.457 442.155 401.724 442.089 400.135 442.66C398.546 443.231 397.212 444.399 396.387 445.941C395.561 447.519 395.298 449.357 395.643 451.122C395.989 452.887 396.922 454.464 398.273 455.569C394.677 459.544 390.092 462.371 385.043 463.727ZM448.119 412.106H422.384C419.928 406.52 416.563 401.432 412.441 397.071H448.119V412.106Z" fill="black"/>
<path d="M42.8555 336.924H56.8301V366.994H42.8555V336.924ZM84.7793 239.2V275.11C84.7793 275.11 84.7793 291.826 98.7539 291.826H154.652V216.652H98.7539C98.7539 216.644 84.7793 218.318 84.7793 239.2Z" fill="black"/>
<path d="M91.7703 449.69C99.4882 449.69 105.745 442.958 105.745 434.655C105.745 426.351 99.4882 419.62 91.7703 419.62C84.0523 419.62 77.7957 426.351 77.7957 434.655C77.7957 442.958 84.0523 449.69 91.7703 449.69Z" fill="black"/>
<path d="M378.246 449.69C385.964 449.69 392.221 442.958 392.221 434.655C392.221 426.351 385.964 419.62 378.246 419.62C370.528 419.62 364.271 426.351 364.271 434.655C364.271 442.958 370.528 449.69 378.246 449.69Z" fill="black"/>
<path d="M209.813 268.413C209.873 258.621 204.633 253.025 195.227 253.025C192.85 253.025 191.143 253.221 190.107 253.496V285.177C191.143 285.374 192.73 285.374 194.258 285.374C204.014 285.437 209.813 279.668 209.813 268.413ZM377.307 267.234H381.757C386.84 267.234 390 264.334 390 259.925C390 255.068 386.832 252.836 381.943 252.836C379.573 252.836 378.045 253.025 377.307 253.221V267.234Z" fill="black"/>
</svg>
